<svg width="15289" height="15132" viewBox="0 0 15289 15132" fill="none" xmlns="http://www.w3.org/2000/svg">
<path d="M8640.6 400.689C8234.16 412.731 7287.06 147.292 6864.31 13.0666C6241.12 -32.0933 6149.26 46.9239 5818.09 141.019C5614.87 173.635 5069.19 257.682 4512.22 332.949C3816.01 427.032 3612.79 460.902 2942.92 1375.39C2273.04 2289.88 2182.73 1951.18 1791.34 2850.61C1399.95 3750.04 1136.52 3938.21 703.741 4431.2C270.959 4924.2 0 6489.74 0 7509.6C0 8529.46 229.562 8871.92 316.119 9018.69C402.675 9165.46 451.598 9304.71 466.652 9669.75C481.705 10034.8 790.297 10350.9 940.83 10520.3C1091.36 10689.6 1046.22 11152.5 1042.45 11288C1038.69 11423.5 1177.93 11927.7 1433.84 12097.1C1638.56 12232.6 1712.33 12519.8 1723.62 12646.5C2604.23 14140.6 3928.92 14411.5 4064.4 14437.9C4199.88 14464.2 4357.94 14437.9 4572.45 14675C4786.96 14912.1 5167.05 14859.4 5295.01 14859.4C5422.96 14859.4 5656.28 14580.9 5784.24 14723.9C5886.6 14838.3 6173.11 14861.9 6303.58 14859.4C6594.6 14856.9 7242.15 14880.4 7504.07 14994.5C7831.48 15137.2 8693.28 15183 9111.01 15062.6C9445.19 14966.2 10005.4 14977.1 10243.8 14994.5C10796.9 14991.7 11236.7 14873.7 11459.3 14580.9C12437.8 13293.8 12426.5 13681.4 12949.6 13384.1C13472.7 13086.8 13224.3 12733.1 13781.3 12394.4C14338.3 12055.7 14195.3 11837.4 14654.4 11359.5C15021.7 10977.1 15106 10133.9 15102.2 9760.07C15068.3 9461.51 15020.9 8832.03 15102.2 8702.57C15203.8 8540.75 15358.1 7908.51 15252.7 7475.73C15147.4 7042.95 15222.6 6941.34 15252.7 6549.95C15276.8 6236.85 15162.4 5734.57 15102.2 5522.57C14988.1 5188.89 14718.4 4375.51 14552.8 3791.44C14387.2 3207.37 14115 2860.65 13999.6 2760.29C13686 2441.66 12990.2 1705.81 12716.3 1311.41C12373.8 818.417 11805.5 758.204 11564.7 758.204C11323.8 758.204 10849.7 581.328 10134.6 400.689C9419.6 220.049 9148.64 385.635 8640.6 400.689Z" fill="#C36F43"/>
<path d="M7812.65 1966.22L7929.32 1796.87L8377.15 1356.56L9972.8 1691.5L12215.7 3208.12L13935.6 5902.65L13491.5 6365.54H13325.9L13137.7 6275.22L12347.5 6384.36L12257.1 6644.03L12117.9 6771.98L12313.6 6760.69L12501.7 6858.53L13356 6726.82L13491.5 6734.35L13529.1 7298.84L13423.8 7377.87L13269.5 7332.71L13051.2 7189.71L13100.1 7381.64L13420 7584.86L13694.7 7833.23V9805.21L12776.5 11069.7L12603.4 11077.2L12486.7 10953L12215.7 10520.2L12023.8 10610.6L12121.7 11005.7L12366.3 11118.6L12490.5 11269.1V11713.2L10243.8 13199.7L7056.23 13470.7L6871.82 13365.3V13143.3L6916.98 12913.7L6860.53 12898.7L6785.27 13143.3L6713.76 13297.6L6529.36 13504.6L3390.75 11886.3L3371.94 11705.7L3503.65 11570.2L3853.64 11242.8L3755.8 11137.4L3424.62 11453.5L3277.85 11513.8L2871.42 11167.5L1558.02 9255.77L1509.09 6764.45L2062.3 5714.49L2337.02 5067.2L2957.97 3208.12L5193.38 1691.5L7240.63 1556.02L7489.01 1800.63L7504.06 1966.22V2361.37L7812.65 1966.22Z" fill="#9C2E37"/>
<path d="M7921.79 1800.62L7865.34 1115.69C8127.52 1061.75 8773.81 950.861 9261.53 938.818C9749.26 926.776 10295.2 1192.21 10507.2 1326.44C10803.2 1547.22 11640.7 2175.44 12622.2 2922.09C13603.7 3668.73 14167.6 5285.45 14327 6000.48L13491.5 6365.52L13231.8 5537.59C13115.2 5052.13 12181.9 4205.38 11666.3 3260.79C11502 2959.72 10823.3 2545.76 10605 2470.49C10351.6 2388.95 9758.29 2178.46 9412.07 1988.78C9065.84 1799.11 8274.29 1784.31 7921.79 1800.62Z" fill="#FFAE82"/>
<path d="M7364.82 1190.98L7489.01 1800.62C7215.54 1745.43 6577.53 1684.72 6213.24 1883.43C5757.88 2131.81 5189.62 2353.84 4982.63 2376.42C4775.65 2399 4459.53 2583.4 4278.9 2865.65C4098.27 3147.9 3673 3479.07 3473.54 3576.92C3313.98 3655.2 3118.54 3938.2 3040.76 4069.92C2902.77 4428.68 2583.14 5183.86 2408.52 5334.39C2190.25 5522.56 2005.85 6041.89 1810.16 6437.04C1614.46 6832.19 1742.4 7837 1810.16 7942.37C1877.91 8047.74 1938.11 8563.32 1945.64 8909.54C1953.16 9255.77 2058.56 9650.92 2321.97 9985.85C2532.69 10253.8 3047.02 11116.1 3277.85 11513.8C3178.75 11599.1 2933.13 11777.2 2743.46 11807.3C2553.79 11837.4 2257.98 12018 2133.79 12104.6C1831.47 11683.1 1220.82 10513.5 1196.73 9206.85C1172.65 7900.22 1113.96 7114.44 1087.62 6884.88C1016.12 6381.85 925.801 5367.51 1136.55 5334.39C1347.29 5301.27 1839.03 5486.18 2058.56 5582.77C1945.66 5255.36 1580.58 5048.38 1558 4796.24C1539.93 4594.52 1673.41 4486.39 1742.4 4457.54C1865.84 4689.36 2054.76 4842.65 2133.79 4890.32C2114.97 4562.91 2081.12 4472.59 1953.17 4167.76C1850.81 3923.9 1852.81 3747.52 1866.61 3689.82C2510.14 2865.65 3138.61 2436.63 4278.9 1800.62C5191.13 1291.81 6716.28 1182.18 7364.82 1190.98Z" fill="#FFAE82"/>
<path d="M13423.8 7377.87L13491.5 6734.35C13706 6734.35 14133.5 6801.33 14127.5 7069.28C14121.5 7337.23 13655.8 7386.65 13423.8 7377.87Z" fill="#FFAE82"/>
<path d="M14274.3 7803.13L13423.8 7584.86C13679.7 8322.47 13575.5 8720.12 13491.5 8826.75C13377.3 9019.93 13140 9504.15 13103.9 9895.53C13067.7 10286.9 12755.1 10846.4 12603.4 11077.2C12610.9 11111.1 12684.6 11183.3 12919.5 11201.4C13154.3 11219.5 13481.5 11399.6 13615.7 11487.4C14199.8 10858.2 14333.2 9875.46 14327 9462.75L14274.3 7803.13Z" fill="#FFAE82"/>
<path d="M13103.9 11920.2C12986.5 11712.5 12643.5 11399.6 12486.7 11269.1C12098.3 11723.8 11697.6 11865 11545.9 11878.8C11389.1 11861.2 10988.9 11937.5 10642.7 12383.1C10296.4 12828.7 9858.64 12925 9683.02 12917.5C9193.79 12902.4 8133.28 12924.3 7805.12 13132C7476.96 13339.7 7043.68 13374.1 6868.06 13365.3C7078.8 13630.3 7076.29 14075.3 7048.7 14264.7C8937.88 14426.6 10006.7 13854.5 10439.4 13534.7C10785.7 13278.8 12360 12351.7 13103.9 11920.2Z" fill="#FFAE82"/>
<path d="M6503.01 14193.2C6749.89 14136 6746.38 13572.3 6713.76 13297.6C6466.64 13259.9 5907.66 13119.9 5648.74 12861C5325.1 12537.4 4470.82 12104.6 4120.83 12104.6C3840.84 12104.6 3504.9 11838.7 3371.93 11705.7L2664.43 12477.2C4570.17 13518.9 6017.55 14055.3 6503.01 14193.2Z" fill="#FFAE82"/>
<path d="M3767.07 11235.3L3503.64 11570.2C3834.8 11905.2 3970.3 11863.7 4395.56 11976.6C4820.81 12089.5 4809.52 12097.1 5468.1 12544.9C5994.97 12903.2 6565.74 13093.1 6785.26 13143.3L6868.06 12977.7V13143.3C6988.48 13165.9 7319.66 13143.3 7601.9 13019.1C7884.15 12894.9 8012.11 12770.7 9009.39 12785.8C9807.21 12797.8 10260.1 12524.8 10386.8 12386.8C10517.2 12176.1 10882 11747.8 11297.5 11720.7C11713 11693.6 12183.1 11308 12366.3 11118.6C12233.8 11007.2 12140.5 10753.6 12110.4 10640.7C12266.9 10854.4 12426.5 10938 12486.7 10953C13134 9771.34 12708.7 9797.68 13062.5 9297.16C13345.5 8896.74 13426.3 8520.66 13431.3 8382.67C13359 7855.81 13182.9 7495.78 13103.9 7381.63L13269.5 7332.71C13305.6 7290.56 13342.2 6911.21 13356 6726.81L12313.6 6760.68C12497.2 7438.08 12445.3 8202.03 12396.4 8499.33C11515.8 10926.7 10232.5 11299.2 9336.79 11863.7C8620.26 12315.3 7914.26 12360.5 7650.83 12326.6C5791.75 12307.8 4794.47 11717 4557.38 11280.4C4320.29 10843.9 3812.24 10271.9 3597.73 10049.8C3383.22 9827.79 3326.77 9782.65 3319.25 9240.71C3313.23 8807.16 3218.89 8550.76 3172.48 8476.76C3064.6 8287.33 2857.86 7770.76 2893.99 7219.81C2927.86 6064.47 3304.19 5496.21 3612.79 5165.03C3921.38 4833.86 4034.28 4619.35 4188.57 4378.5C4342.87 4137.65 4425.66 4156.46 4771.89 3802.71C5118.11 3448.96 6028.84 3008.65 6559.46 2854.36C7090.09 2700.06 7812.65 2771.56 7974.47 2854.36C8136.3 2937.15 8734.66 3023.71 9005.62 3008.65C9276.58 2993.6 9540.01 3174.24 9713.13 3369.93C9851.62 3526.48 10054.3 3658.45 10138.4 3704.87C10455.8 3847.87 11141.7 4273.13 11346.4 4830.1C11602.3 5526.31 11862 5865.01 12012.5 6071.99C12132.9 6237.58 12225.8 6522.34 12257.1 6644.02C12473.9 6415.21 13060 6363.02 13325.9 6365.53C13154.3 5730.28 12795.3 5142.45 12637.2 4927.95C12491.7 4805.01 12105.1 4388.29 11722.7 3704.87C11340.4 3021.45 10687.8 2692.53 10409.3 2613.5C10322.8 2603.47 10019.5 2518.67 9498.62 2259.75C8977.77 2000.84 8157.62 1956.19 7812.65 1966.24L7504.06 2361.36V1966.24C6612.15 1853.34 6183.13 2041.5 6066.47 2158.16C5973.14 2251.49 5468.1 2425.36 5227.25 2500.63C5024.03 2547.04 4556.63 2729.44 4312.76 3087.7C4068.9 3445.97 3744.5 3643.42 3612.79 3697.36C3511.18 3743.78 3254.52 3978.86 3040.76 4547.87C2773.57 5259.14 2656.86 5262.9 2382.17 5680.63C2107.47 6098.36 1719.8 7219.83 1934.31 7769.27C2105.91 8208.83 2156.36 8554.55 2160.13 8672.47C2114.97 8886.98 2096.16 9409.33 2382.17 9782.65C2668.18 10156 3196.3 11052.1 3424.61 11453.6L3767.07 11235.3Z" fill="#BD4D5B"/>
<path d="M6066.23 3200.12C6256.26 3098.85 6861.76 2914.74 7768.14 2984.72L7778.81 2985.55L7778.84 2985.56C7851.62 2995.61 8034.82 3031.51 8185.41 3094.76C8222.98 3110.54 8283.62 3124.63 8357.23 3137.04C8430.84 3149.45 8517.38 3160.17 8606.75 3169.23C8779.91 3186.79 8963.67 3198.11 9084.47 3203.37L9095.96 3203.86L9095.98 3203.86L9096 3203.86C9147.47 3210.14 9232.94 3228.59 9322.11 3263.54C9411.27 3298.49 9504.18 3349.96 9570.48 3422.29C9736.03 3602.88 10022 3836.17 10383.2 4005.49C10563.9 4090.21 10736.2 4257.75 10884.9 4453.47C11033.5 4649.2 11158.7 4873.16 11245.2 5070.76C11418.4 5465.9 11501.1 5665.33 11806 6154.53C11958.4 6399.16 12071.3 6596.78 12145.2 6858.87C12219 7120.96 12253.9 7447.48 12250.1 7949.9C12244.1 8753.82 11951.5 9240.92 11805.9 9384.06C11701.8 9514.53 11443.9 9863.47 11245.2 10215.7C10996.8 10656.1 10650.4 10863.1 10274.1 11085.2C10180 11140.7 10044.3 11235 9881.04 11345.2C9717.75 11455.5 9526.87 11581.7 9322.46 11701C8913.66 11939.5 8450.67 12150.3 8045.97 12150.3C7236.82 12150.3 6307.23 12018.5 5799.13 11871.8C5545.13 11798.4 5328.66 11744.7 5122.07 11611.6C4915.47 11478.4 4718.78 11265.7 4504.25 10874.2C4289.78 10482.9 4029.24 10261.9 3821.77 10063.4C3614.3 9864.84 3459.87 9688.78 3457.98 9387.49L3457.88 9371.68C3454.21 8781.67 3452.91 8576.23 3307.52 8322.72C3160.73 8066.78 3072.87 7810.73 3070.36 7596.14L3070.13 7589.87C3060.55 7323.45 3075.41 6897.04 3150.9 6475.31C3226.99 6050.29 3364.68 5629.93 3601.12 5382.94C3837.45 5136.08 4000.83 4941.03 4109.04 4797.51C4217.27 4653.97 4270.29 4562.01 4285.95 4521.31L4285.97 4521.25L4286 4521.21C4390.13 4368.14 4672.94 4020.59 4971.09 3854.94C5269.14 3689.36 5825.35 3349.42 6066.2 3200.14L6066.21 3200.13L6066.23 3200.12ZM8098.86 3531.31C7729.9 3376.95 7285.66 3414.6 6931.79 3614.13C6790.38 3693.86 6594.14 3733.68 6406.25 3751.05C6218.37 3768.42 6038.89 3763.34 5931.04 3753.3L5931.02 3753.3H5931C5856.95 3751.42 5740.04 3760.64 5629.97 3794.44C5519.91 3828.23 5416.56 3886.62 5369.81 3983.15C5311.51 4103.5 5174.2 4269.03 5035.43 4414.39C4896.66 4559.75 4756.51 4684.84 4692.59 4724.31C4641.33 4755.98 4589.22 4815.32 4544.93 4876.58C4500.63 4937.85 4464.12 5001.09 4444.03 5040.63C4317.98 5285.22 4222.05 5405.58 4140.73 5476.08C4100.08 5511.33 4063.07 5534.13 4027.74 5553.76C3992.43 5573.38 3958.76 5589.87 3924.86 5612.47C3856.98 5657.72 3815.54 5739.71 3791.06 5820.19C3766.59 5900.68 3759.05 5979.76 3759.05 6019.32C3759.05 6029.15 3757 6044.93 3753.29 6065.23C3749.57 6085.52 3744.19 6110.29 3737.55 6138.1C3724.26 6193.72 3705.92 6261.45 3685.7 6329.65C3665.47 6397.86 3643.37 6466.53 3622.55 6524.02C3601.74 6581.54 3582.23 6627.82 3567.21 6651.29C3537.05 6698.41 3505.05 6795.4 3486.23 6897.96C3467.41 7000.53 3461.75 7108.83 3484.37 7178.58C3493.38 7206.36 3502.28 7271.58 3510.76 7359.18C3519.23 7446.76 3527.28 7556.64 3534.58 7673.71C3549.2 7907.84 3560.86 8170.71 3567.13 8341.31V8341.31C3571.86 8456.22 3626.48 8567.33 3686.94 8660.97C3717.17 8707.79 3748.87 8750.26 3776.54 8786.66C3804.21 8823.07 3827.83 8853.39 3841.92 8875.95C3856.01 8898.48 3874.58 8940.31 3894.8 8992.41C3915.03 9044.49 3936.9 9106.81 3957.59 9170.31C3998.99 9297.33 4035.67 9429.01 4045.07 9492.94C4063.91 9621.03 4158.07 9782.95 4289.81 9929.74C4355.65 10003.1 4481.7 10169.6 4604.01 10339.4C4726.32 10509.3 4844.85 10682.3 4895.65 10768.9C4997.36 10942.2 5219.57 11062.7 5471.83 11077.7C5503.29 11079.6 5548.94 11089.8 5605.28 11106.5C5661.62 11123.2 5728.63 11146.3 5802.8 11173.9C5951.15 11229.2 6128.13 11302.5 6305.71 11378.7C6660.85 11531.2 7018.4 11694.9 7153.89 11747.6C7289.45 11800.3 7396.81 11805 7498.06 11781C7599.28 11757 7694.36 11704.2 7805.37 11642.2C8027.28 11518 8275.53 11499.2 8708.33 11487.9C8924.79 11482.3 9059.42 11439.9 9167.24 11374C9275.01 11308.1 9355.99 11218.7 9465.08 11119C9639.67 10959.5 10257.8 10515.7 10545.1 10313.7C10653.1 10248.4 10900.5 10033.6 11027 9696.26C11185 9274.84 11312.9 9135.65 11452.2 8951.25C11591.5 8766.79 11787.2 8409.17 11787.2 7961.19C11787.2 7737.25 11767.5 7485.08 11725.1 7259.71C11682.8 7034.37 11617.8 6835.75 11527.4 6718.99C11482.3 6660.7 11410.4 6537.02 11326.1 6380.89C11241.8 6224.78 11145.3 6036.27 11051 5848.34C10862.3 5472.5 10682.6 5098.95 10628.1 4991.71C10518.9 4777.11 10398.4 4660.38 10221.4 4551.2C10044.6 4442.09 9540.34 4039.44 9378.53 3892.68C9248.97 3775.17 9070.98 3725.72 8998.16 3715.67L8998.14 3715.67L8998.12 3715.67L8993.93 3715.43C8814.59 3704.84 8391.52 3653.75 8098.86 3531.31Z" fill="#A8424D"/>
<path d="M6845.5 3836.6C7131.51 3686.07 7605.69 3535.54 7925.57 3686.07C8181.48 3806.5 8596.69 3866.7 8772.32 3881.74C8878.94 3881.74 9142.63 3923.14 9344.34 4088.72C9596.48 4295.71 9822.28 4506.45 9965.29 4589.25L9965.77 4589.53C10108.9 4672.39 10375.7 4826.84 10544.8 5274.17C10714.2 5722 11195.9 6519.83 11248.6 6595.09C11301.3 6670.36 11643.7 7283.78 11602.3 7859.57C11560.9 8435.36 11369 8736.42 11248.6 8902.01C11152.2 9034.48 10955 9451.45 10868.5 9643.38C10818.3 9761.3 10633.7 10054.3 10296.5 10283.1C9874.97 10569.2 9509.93 10881.5 9227.68 11107.3C8945.43 11333.1 8764.79 11310.5 8659.42 11321.8C8554.04 11333.1 8132.55 11265.4 7767.51 11494.9C7402.47 11724.5 7165.38 11577.7 7082.59 11525C6999.79 11472.4 5840.69 11001.9 5614.89 10949.3C5389.09 10896.6 5212.22 10945.5 4997.71 10576.7C4826.1 10281.6 4537.33 9951.98 4414.39 9824.02C4369.23 9771.34 4260.85 9603.49 4188.59 9353.61C4098.27 9041.25 4094.51 8969.75 3880 8646.1C3665.49 8322.46 3710.65 8198.27 3706.89 8028.92C3703.13 7859.57 3718.19 7377.86 3676.79 7249.91C3635.4 7121.96 3676.8 6726.81 3778.4 6564.99C3859.68 6435.53 3872.47 6182.38 3868.7 6071.99C3871.21 5995.47 3916.12 5818.35 4075.69 5722C4275.14 5601.58 4436.97 5469.86 4568.68 5183.85C4674.05 4955.04 4891.07 4774.9 4986.41 4713.44C5098.06 4621.88 5349.21 4382.3 5460.6 4156.49C5470.63 4093.76 5551.67 3965.31 5795.53 3953.27C6100.36 3938.21 6559.48 3987.14 6845.5 3836.6ZM7801.36 4860.23C7491.26 4751.84 7233.1 4827.61 7142.78 4879.04C6915.73 5033.33 6368.3 5366 5994.98 5462.34C5621.66 5558.68 5370.27 5996.73 5291.24 6203.71C5177.08 6562.48 4941.99 7432.81 4914.89 8043.97C4887.79 8655.14 5367.74 9106.48 5611.1 9255.76C5666.3 9259.52 5849.7 9340.81 6141.73 9635.86C6506.77 10004.7 7003.53 10309.5 7504.05 10332.1C8004.58 10354.7 9107.23 9869.18 9385.71 9458.98C9664.2 9048.78 9984.08 8755.24 10164.7 8461.7C10345.4 8168.16 10337.8 7885.91 10322.8 7325.18C10310.7 6876.59 10199.8 6646.53 10145.9 6587.57C10020.5 6434.53 9732.69 6059.2 9585.17 5782.22C9437.65 5505.24 9217.62 5410.9 9126.04 5398.36C9036.98 5384.56 8795.63 5322.34 8542.73 5183.85C8226.61 5010.74 8188.98 4995.71 7801.36 4860.23Z" fill="#C0505E"/>
<path d="M7481.47 4980.63C7801.35 4980.63 8207.79 5180.09 8373.37 5281.7C8505.84 5362.99 8784.83 5478.65 8907.76 5526.31C9009.37 5535.1 9244.96 5606.1 9374.42 5819.85C9536.24 6087.05 9630.32 6324.14 9863.65 6516.07C10097 6708 10191.1 7287.55 10176 7630.01C10160.9 7972.47 10066.9 8363.86 9762.04 8695.03C9518.18 8959.97 9319.22 9282.11 9250.23 9410.06C9034.46 9654.68 8389.93 10141.6 7537.92 10132.6C6472.9 10121.3 6491.71 9458.98 5803.03 9169.21C5114.34 8879.43 5110.58 8070.32 5121.87 7900.97C5133.16 7731.62 5291.22 6373.06 5490.68 6151.03C5690.13 5928.99 5652.49 5812.33 6175.6 5594.05C6405.16 5486.17 6883.85 5254.6 6962.13 5191.38C7059.98 5112.35 7161.58 4980.63 7481.47 4980.63ZM7974.47 5537.62C7748.67 5426.23 7481.47 5410.93 7376.1 5417.2C6551.93 5417.2 6107.87 5996.73 6062.71 6147.26C6017.55 6297.79 5761.65 6749.39 5675.08 6866.05C5588.5 6982.72 5561.53 7205.93 5577.23 7268.73C5611.1 7404.21 5594.79 7803.12 5577.23 8051.5C5570.96 8140.56 5581.75 8327.73 5675.08 8363.85C5791.74 8409.01 6318.61 9041.25 6698.7 9383.71C7078.8 9726.18 7071.27 9639.62 7485.23 9696.07C7899.2 9752.52 8264.24 9579.41 8309.4 9504.14C8354.56 9428.87 8934.11 8943.41 9152.38 8838.03C9370.66 8732.66 9494.85 8247.19 9600.22 7995.05C9705.59 7742.91 9679.25 7483.24 9600.22 7321.42C9521.19 7159.59 9472.27 6790.79 9242.71 6331.66C9059.06 5964.36 8729.64 5792.25 8587.89 5752.11C8477.5 5727.03 8200.26 5649.02 7974.47 5537.62Z" fill="#BB4F53"/>
<path d="M6935.77 5665.57C7113.9 5609.12 7547.69 5530.09 7857.78 5665.57C8245.4 5834.92 8414.75 5872.54 8490.02 5898.89C8565.29 5925.23 9031.94 6068.24 9182.47 6576.28C9333 7084.33 9355.58 7219.81 9408.27 7332.71C9460.96 7445.61 9517.41 7618.72 9408.27 7983.77L9405.02 7994.65C9297.61 8353.97 9221.09 8609.98 8945.38 8759.01C8722.59 8879.44 8385.9 9185.52 8245.41 9323.51C8166.38 9388.74 7937.57 9519.95 7654.56 9522.96L7645.98 9523.06C7297.69 9526.77 7106.96 9528.81 6871.79 9323.51C6634.7 9116.53 6393.85 8792.88 6205.69 8642.35C6017.52 8491.81 5739.03 8303.65 5739.03 8081.61C5739.03 7859.58 5825.59 7588.62 5739.03 7385.4C5652.48 7182.18 5784.19 6930.04 5934.73 6715.53C6085.26 6501.02 6134.16 6301.56 6205.69 6169.85C6277.21 6038.13 6615.87 5729.83 6935.77 5665.57ZM7485.22 6516.05C7285.75 6498.06 7033.62 6666.59 6913.2 6760.67C6792.77 6854.75 6578.26 7242.37 6597.08 7641.29C6615.89 8040.2 7063.73 8570.83 7635.75 8570.83C8207.78 8570.82 8490.03 7934.82 8602.93 7720.32C8715.83 7505.81 8490.03 7118.18 8301.86 6824.65C8151.33 6589.81 7694.71 6521.07 7485.22 6516.05Z" fill="#A8424D"/>
<path d="M7748.68 8412.75C7951.9 8416.52 8350.81 8202.01 8335.76 7441.82C8411.02 6685.37 7647.07 6685.39 7462.67 6666.57C7278.26 6647.76 6770.22 6963.88 6725.06 7645.04C6679.9 8326.2 7545.46 8408.99 7748.68 8412.75Z" fill="#BD4D5B"/>
</svg>
